<svg width="300" height="300" viewBox="0 0 300 300" fill="none" xmlns="http://www.w3.org/2000/svg">
    <g clip-path="url(#clip0_12_496)">
        <circle cx="150" cy="150" r="149.5" fill="url(#paint0_radial_12_496)" stroke="#18151A" />
        <path
            d="M78.0901 35.0033C75.6901 35.8033 72.8901 37.3033 71.7901 38.5033C68.9901 41.5033 66.2901 48.2033 65.4901 54.0033C64.3901 62.2033 61.1901 74.1033 58.9901 78.4033C57.8901 80.6033 54.3901 85.3033 51.1901 88.7032C47.9901 92.2032 41.9901 99.3033 37.7901 104.503C33.5901 109.703 30.4901 114.503 29.3901 116.003C28.2901 117.503 26.9901 119.503 25.9901 121.003C23.9901 124.503 24.0901 124.503 22.9901 126.303C20.0901 131.003 20.3901 135.103 23.6901 137.203C25.2901 138.103 27.7901 140.003 29.3901 141.303C36.7901 147.303 57.9901 155.303 63.5901 154.203C64.8901 154.003 65.9901 153.803 65.9901 153.903C65.9901 153.903 65.0901 156.403 63.9901 159.203C61.3901 166.003 60.3901 170.903 58.9901 182.303C57.5901 193.303 58.4901 201.703 63.4901 227.503C68.1901 251.503 68.5901 255.903 66.5901 262.503C63.8901 271.603 64.8901 294.303 68.5901 308.703C70.1901 315.003 69.2901 322.203 66.6901 323.603C65.9901 324.103 64.4901 326.203 63.4901 328.503C61.6901 332.403 61.6901 333.003 63.2901 339.803C64.1901 343.803 65.1901 349.603 65.5901 352.703C65.9901 356.403 66.6901 358.503 67.4901 358.503C68.3901 358.503 68.5901 356.303 68.2901 349.203L67.8901 340.003L70.3901 342.803C71.7901 344.303 73.1901 347.103 73.4901 349.003C73.7901 350.903 74.1901 354.103 74.5901 356.103C74.8901 358.003 75.7901 359.903 76.5901 360.203C77.2901 360.503 77.9901 361.503 77.9901 362.503C77.9901 364.803 79.8901 365.503 86.3901 365.503C92.5901 365.503 94.4901 364.203 95.3901 359.603C95.8901 357.003 95.3901 355.103 93.0901 351.103C89.3901 344.603 83.0901 320.903 84.0901 317.503C87.1901 307.003 92.4901 285.603 94.0901 276.803C95.9901 266.203 97.9901 259.603 104.59 241.603C108.99 229.903 113.99 205.403 113.99 195.803C113.99 195.103 114.89 194.503 115.99 194.503C122.39 194.503 125.99 189.303 125.99 180.403C125.99 172.003 122.89 141.203 121.39 135.003C120.69 131.703 119.99 127.903 120.09 126.503C120.09 124.203 120.19 124.203 122.09 127.503L124.09 131.003L123.49 127.503C122.39 121.903 120.99 108.603 120.49 100.203C119.89 90.8033 117.89 85.9032 111.69 78.6032C108.09 74.4032 106.99 72.2032 106.49 68.6032C104.79 54.5032 99.0901 40.2032 93.6901 36.2032C90.4901 33.8033 83.7901 33.3033 78.0901 35.0033ZM56.4901 117.203C56.1901 121.003 55.5901 125.303 55.2901 126.903C54.9901 128.903 55.0901 129.503 55.8901 129.103C56.6901 128.603 56.8901 129.503 56.3901 132.403C55.6901 136.503 56.5901 137.503 58.7901 135.303C59.6901 134.403 59.9901 134.403 59.9901 135.503C59.9901 136.303 60.8901 138.103 61.8901 139.403L63.6901 141.803L65.5901 138.603C67.3901 135.603 68.9901 134.503 68.9901 136.403C68.9901 136.903 69.2901 138.003 69.5901 138.803C70.1901 140.403 64.0901 144.503 61.1901 144.503C58.9901 144.503 44.2901 136.003 40.7901 132.703C39.1901 131.303 37.9901 129.703 37.9901 129.103C37.9901 127.803 55.0901 110.503 56.2901 110.503C56.7901 110.503 56.8901 113.503 56.4901 117.203ZM112.99 158.003C112.99 158.303 112.79 158.503 112.49 158.503C112.19 158.503 111.99 158.303 111.99 158.003C111.99 157.703 112.19 157.503 112.49 157.503C112.79 157.503 112.99 157.703 112.99 158.003ZM115.39 164.503C116.79 169.203 116.79 169.803 115.19 172.503L113.39 175.403L113.29 167.403C113.19 163.103 113.29 159.503 113.49 159.503C113.79 159.503 114.59 161.803 115.39 164.503ZM114.99 187.003C114.99 187.303 114.79 187.503 114.49 187.503C114.19 187.503 113.99 187.303 113.99 187.003C113.99 186.703 114.19 186.503 114.49 186.503C114.79 186.503 114.99 186.703 114.99 187.003Z"
            fill="black" />
        <path
            d="M216.427 34.4741C207.927 36.6741 202.027 42.4741 199.327 51.2741C196.827 59.4741 197.027 67.9741 199.727 73.4741C200.927 75.9741 201.927 78.4741 201.927 79.1741C201.927 79.7741 199.527 82.4741 196.727 85.1741C193.827 87.8741 189.527 92.274 187.027 94.9741C183.927 99.0741 183.427 100.574 183.427 104.474C184.227 110.374 184.127 122.974 182.927 137.574C181.527 153.974 181.727 164.474 183.427 175.474C184.227 180.774 185.327 190.374 185.827 196.774C186.527 205.874 187.227 209.674 189.227 213.774C190.627 216.674 193.127 225.774 194.827 234.074C199.027 254.874 198.927 253.474 199.327 269.074C199.827 281.874 201.627 295.174 205.527 314.174C208.627 329.374 207.927 342.174 203.427 351.974C200.127 359.174 201.227 361.574 207.727 361.574C213.827 361.574 216.927 360.674 216.927 358.974C216.927 358.174 217.527 357.674 218.127 357.874C218.927 357.974 219.727 355.574 220.527 350.574C221.127 346.474 222.227 341.774 222.827 340.174C223.827 337.674 223.627 336.574 221.327 331.774L218.627 326.274L219.327 305.174C219.727 291.174 219.627 281.374 218.827 276.074C218.227 271.674 217.627 262.374 217.527 255.374L217.427 242.674L224.827 242.374C233.327 242.074 233.027 241.774 235.027 253.274C235.627 257.074 236.927 262.974 238.027 266.474C239.027 269.974 239.927 274.874 239.927 277.474C239.927 283.874 242.527 297.874 245.527 308.374C249.627 321.974 250.027 335.074 246.927 350.174C244.027 364.774 244.327 365.574 252.527 365.574C255.427 365.574 259.027 365.174 260.427 364.574L263.027 363.574L262.627 351.874C262.427 345.374 261.627 337.574 261.027 334.574C260.227 331.274 259.727 318.374 259.527 302.074C259.327 275.574 259.227 274.874 256.127 261.674L252.927 248.274L253.127 223.174L253.427 198.074L249.627 182.074C247.427 173.274 245.127 164.174 244.427 161.774L243.227 157.574H247.027C249.027 157.574 252.027 156.974 253.627 156.174C255.127 155.374 259.527 153.774 263.327 152.574C267.427 151.374 273.727 148.174 278.627 144.974C285.727 140.274 286.927 139.074 286.927 136.674C286.927 133.874 280.327 123.374 273.027 114.574C270.927 112.074 267.327 107.174 264.927 103.574C258.027 93.2741 254.327 89.3741 248.627 86.6741C244.127 84.3741 243.327 83.5741 242.827 80.5741C242.527 78.5741 242.027 76.4741 241.627 75.8741C241.227 75.1741 239.927 69.5741 238.827 63.3741C234.827 41.2741 227.427 31.6741 216.427 34.4741ZM268.427 130.974C270.227 133.674 270.227 133.674 266.827 137.174C262.627 141.474 250.827 148.574 247.727 148.574C243.727 148.574 241.127 147.474 240.627 145.574C240.327 144.574 240.827 140.774 241.727 137.174C243.027 131.974 243.727 130.574 245.227 130.574C248.127 130.574 251.127 128.574 250.527 126.974C250.227 126.174 250.527 125.574 251.127 125.574C251.827 125.574 251.827 125.174 251.127 124.274C250.627 123.574 250.427 120.674 250.727 117.674L251.227 112.174L258.927 120.174C263.227 124.574 267.427 129.474 268.427 130.974ZM198.627 137.174C198.127 143.874 197.327 149.274 196.127 151.874L194.327 155.974L194.627 148.574C195.027 138.374 197.027 126.574 198.227 126.574C198.927 126.574 199.027 130.274 198.627 137.174ZM217.627 354.274C217.227 354.574 216.927 354.274 216.927 353.574C216.927 352.874 217.227 352.574 217.627 352.874C217.927 353.274 217.927 353.874 217.627 354.274Z"
            fill="black" />
        <path d="M224.5 192.435L151 150L224.5 107.565V192.435Z" fill="url(#paint1_linear_12_496)"
            stroke="#18151A" />
        <path d="M75.5 192.435L149 150L75.5 107.565V192.435Z" fill="url(#paint2_linear_12_496)"
            stroke="#18151A" />
        <path
            d="M100.12 164.48C99.6267 164.48 99.1733 164.46 98.76 164.42C98.36 164.393 97.9067 164.333 97.4 164.24C96.8933 164.147 96.2533 164 95.48 163.8C95.6933 163.333 95.9733 162.833 96.32 162.3C96.68 161.767 97.12 161.313 97.64 160.94C98.16 160.553 98.7867 160.36 99.52 160.36C99.5467 160.36 99.5733 160.36 99.6 160.36C99.64 160.36 99.6667 160.36 99.68 160.36C101.187 160.333 102.48 160 103.56 159.36C104.64 158.72 105.527 157.88 106.22 156.84C106.927 155.787 107.447 154.62 107.78 153.34C108.113 152.047 108.28 150.733 108.28 149.4C108.28 147.307 107.907 145.44 107.16 143.8C106.427 142.16 105.26 140.873 103.66 139.94C102.06 138.993 99.9733 138.52 97.4 138.52C96.88 138.52 96.3333 138.547 95.76 138.6C95.1867 138.653 94.5867 138.733 93.96 138.84V164H88.32V135.44C90.1067 135.053 91.7733 134.787 93.32 134.64C94.88 134.48 96.24 134.4 97.4 134.4C100.947 134.4 103.98 134.993 106.5 136.18C109.033 137.353 110.967 139.06 112.3 141.3C113.647 143.54 114.32 146.24 114.32 149.4C114.32 151.507 113.967 153.473 113.26 155.3C112.553 157.127 111.56 158.727 110.28 160.1C109 161.473 107.493 162.547 105.76 163.32C104.04 164.093 102.16 164.48 100.12 164.48Z"
            fill="#18151A" />
        <path
            d="M188.5 166V136C189.58 135.4 190.76 134.96 192.04 134.68C193.36 134.36 194.82 134.2 196.42 134.2C197.74 134.2 198.78 134.34 199.54 134.62C200.34 134.86 201.16 135.32 202 136C203.04 135.32 204.02 134.86 204.94 134.62C205.86 134.34 206.96 134.2 208.24 134.2C211 134.2 212.9 134.84 213.94 136.12C214.98 137.4 215.5 139.74 215.5 143.14V166H209.44V143.02C209.44 142.22 209.36 141.6 209.2 141.16C209.08 140.72 208.84 140.4 208.48 140.2C208.16 140 207.7 139.9 207.1 139.9C206.66 139.9 206.26 139.98 205.9 140.14C205.54 140.26 205.2 140.46 204.88 140.74V166H199.12V141.58C199.12 141.18 199.04 140.86 198.88 140.62C198.72 140.38 198.48 140.2 198.16 140.08C197.88 139.96 197.5 139.9 197.02 139.9C196.06 139.9 195.24 140.18 194.56 140.74V166H188.5Z"
            fill="#18151A" />
        <path
            d="M157.952 159C157.408 158.616 156.784 158.12 156.08 157.512C155.328 158.056 154.472 158.48 153.512 158.784C152.552 159.088 151.544 159.24 150.488 159.24C148.504 159.24 146.952 158.84 145.832 158.04C144.712 157.24 144.152 156.136 144.152 154.728C144.152 153.576 144.496 152.576 145.184 151.728C145.888 150.88 146.968 150.144 148.424 149.52C147.816 148.784 147.368 148.136 147.08 147.576C146.792 147 146.648 146.384 146.648 145.728C146.648 144.576 147.024 143.664 147.776 142.992C148.528 142.304 149.56 141.96 150.872 141.96C152.12 141.96 153.112 142.232 153.848 142.776C154.584 143.304 154.952 144.032 154.952 144.96C154.952 145.968 154.6 146.8 153.896 147.456C153.192 148.096 152.144 148.744 150.752 149.4C152.576 151.608 154.472 153.616 156.44 155.424C156.984 154.56 157.256 153.576 157.256 152.472C157.256 151.8 157.168 151.176 156.992 150.6H159.032C159.08 150.984 159.104 151.304 159.104 151.56C159.104 152.456 158.952 153.304 158.648 154.104C158.36 154.904 157.944 155.624 157.4 156.264C158.648 157.368 159.832 158.28 160.952 159H157.952ZM150.68 142.872C150.024 142.872 149.504 143.096 149.12 143.544C148.752 143.992 148.568 144.608 148.568 145.392C148.568 145.904 148.68 146.408 148.904 146.904C149.144 147.384 149.528 147.96 150.056 148.632C150.856 148.168 151.48 147.632 151.928 147.024C152.392 146.4 152.624 145.768 152.624 145.128C152.624 144.424 152.448 143.872 152.096 143.472C151.76 143.072 151.288 142.872 150.68 142.872ZM150.68 158.232C152.504 158.232 154.024 157.752 155.24 156.792C153.128 154.904 151.072 152.752 149.072 150.336C147.472 151.328 146.672 152.728 146.672 154.536C146.672 155.704 147.024 156.616 147.728 157.272C148.448 157.912 149.432 158.232 150.68 158.232Z"
            fill="#18151A" />
    </g>
    <defs>
        <radialGradient id="paint0_radial_12_496" cx="0" cy="0" r="1" gradientUnits="userSpaceOnUse"
            gradientTransform="translate(150 150) rotate(90) scale(150)">
            <stop stop-color="#F0DFDA" />
            <stop offset="0.765" stop-color="#F26426" />
        </radialGradient>
        <linearGradient id="paint1_linear_12_496" x1="150" y1="150" x2="224" y2="150"
            gradientUnits="userSpaceOnUse">
            <stop stop-color="#F0DFDA" />
            <stop offset="1" stop-color="#F26426" />
        </linearGradient>
        <linearGradient id="paint2_linear_12_496" x1="150" y1="150" x2="76" y2="150"
            gradientUnits="userSpaceOnUse">
            <stop stop-color="#F0DFDA" />
            <stop offset="1" stop-color="#F26426" />
        </linearGradient>
        <clipPath id="clip0_12_496">
            <rect width="300" height="300" rx="150" fill="white" />
        </clipPath>
    </defs>
</svg>
    