<svg width="19" height="19" viewBox="0 0 19 19" fill="none" xmlns="http://www.w3.org/2000/svg">
    <g clip-path="url(#clip0_168_176)">
        <rect x="12" y="13.4156" width="2" height="7.58067" rx="1"
            transform="rotate(-45.0575 12 13.4156)" fill="black" />
        <path
            d="M16 8C16 12.4183 12.4183 16 8 16C3.58172 16 0 12.4183 0 8C0 3.58172 3.58172 0 8 0C12.4183 0 16 3.58172 16 8ZM1.98443 8C1.98443 11.3223 4.67769 14.0156 8 14.0156C11.3223 14.0156 14.0156 11.3223 14.0156 8C14.0156 4.67769 11.3223 1.98443 8 1.98443C4.67769 1.98443 1.98443 4.67769 1.98443 8Z"
            fill="black" />
    </g>
    <defs>
        <clipPath id="clip0_168_176">
            <rect width="18.37" height="18.36" fill="white" />
        </clipPath>
    </defs>
</svg>